<svg width="96" height="46" viewBox="0 0 96 46" fill="none" xmlns="http://www.w3.org/2000/svg">
<path d="M67.3978 29.9099C67.3978 33.924 68.899 36.6326 72.0972 36.6326C74.9691 36.6326 76.7313 34.4788 76.7966 30.2362C76.8292 26.2548 75.328 23.8398 72.6846 23.5787C72.5541 23.5461 71.9667 23.5461 71.8035 23.5461C68.8011 23.7093 67.3978 26.2548 67.3978 29.9099ZM79.2769 38.4928H76.9924C76.7966 38.4928 76.6334 38.3297 76.6334 38.1338L76.6987 35.7515C75.5891 37.677 73.7616 38.8192 71.3466 38.8192C66.8104 38.8192 64.3954 35.0009 64.3954 30.1383C64.3954 25.2757 66.9409 21.3596 71.3792 21.3596C73.7616 21.3596 75.5891 22.3712 76.6987 24.2641L76.6334 22.0449C76.6334 21.8491 76.7966 21.6859 76.9924 21.6859H79.2769C79.4727 21.6859 79.6358 21.8491 79.6358 22.0449L79.5053 29.9425L79.6358 38.1338C79.6358 38.3297 79.4727 38.4928 79.2769 38.4928Z" fill="#49490E" style="fill:#49490E;fill:color(display-p3 0.2863 0.2863 0.0549);fill-opacity:1;"/>
<path d="M94.9602 22.0123L87.4542 43.7144C87.3889 43.9102 87.1605 44.0407 86.9646 44.0407H84.876C84.7128 44.0407 84.5823 43.8776 84.6476 43.7144L86.4099 38.4928L79.8503 22.0123C79.785 21.8491 79.9155 21.6859 80.0787 21.6859H82.6895C82.8853 21.6859 83.1137 21.8164 83.179 22.0123L87.9111 34.6419L91.9578 22.0123C92.023 21.8164 92.2189 21.6859 92.4147 21.6859H94.7317C94.9275 21.6859 95.0254 21.8491 94.9602 22.0123Z" fill="#49490E" style="fill:#49490E;fill:color(display-p3 0.2863 0.2863 0.0549);fill-opacity:1;"/>
<path d="M6.55961 29.094H14.1962L10.3452 17.8677L6.55961 29.094ZM20.2336 38.4929H17.786C17.5902 38.4929 17.3617 38.3623 17.2965 38.1665L15.0773 31.6722H5.67847L3.49194 38.1665C3.42667 38.3623 3.23086 38.4929 3.03505 38.4929H0.652713C0.489539 38.4929 0.359 38.3297 0.424269 38.1665L8.35453 15.9748C8.4198 15.779 8.64824 15.6485 8.84405 15.6485H12.1075C12.3033 15.6485 12.5318 15.779 12.5971 15.9748L20.462 38.1665C20.5273 38.3297 20.4294 38.4929 20.2336 38.4929Z" fill="#49490E" style="fill:#49490E;fill:color(display-p3 0.2863 0.2863 0.0549);fill-opacity:1;"/>
<path d="M31.4911 35.621C30.4794 37.3506 28.5866 38.8845 25.9105 38.8845C22.4512 38.8845 20.2973 36.6 20.2973 32.1943V28.8656L20.1994 22.0449C20.1994 21.8491 20.3626 21.6859 20.5584 21.6859H22.8755C23.0713 21.6859 23.2345 21.8491 23.2345 22.0449L23.1366 28.8656V32.0964C23.1366 35.1315 24.6051 36.5021 26.7264 36.5021C28.9129 36.5021 30.7078 34.7399 31.3605 31.4111V28.8656L31.2953 22.0449C31.2953 21.8491 31.4584 21.6859 31.6542 21.6859H34.004C34.1998 21.6859 34.3629 21.8491 34.3629 22.0449L34.2324 29.3551L34.3303 38.1339C34.3303 38.3297 34.1671 38.4929 33.9713 38.4929H31.7848C31.589 38.4929 31.4258 38.3297 31.4258 38.1339L31.4911 35.621Z" fill="#49490E" style="fill:#49490E;fill:color(display-p3 0.2863 0.2863 0.0549);fill-opacity:1;"/>
<path fill-rule="evenodd" clip-rule="evenodd" d="M58.9117 44.7672C58.9116 44.7674 58.9116 44.7676 57.5565 44.4069C56.4933 45.3212 56.4931 45.3209 56.4928 45.3206L56.4919 45.3196L56.4774 45.3026C56.4675 45.2911 56.453 45.2742 56.4342 45.2521C56.3967 45.2081 56.3417 45.1434 56.2709 45.0596C56.1293 44.8919 55.9243 44.6474 55.6681 44.3374C55.1558 43.7175 54.438 42.8347 53.6133 41.7795C51.982 39.6923 49.9139 36.907 48.1895 34.137C46.3344 35.3951 44.4115 36.5598 42.8041 37.4888C41.659 38.1507 40.6649 38.6981 39.9563 39.0805C39.6019 39.2717 39.3185 39.4219 39.1228 39.5247C39.025 39.5761 38.9491 39.6157 38.8972 39.6426C38.8713 39.6561 38.8513 39.6664 38.8377 39.6735L38.8176 39.6838L38.8163 39.6845C38.8159 39.6847 38.8157 39.6848 38.1751 38.4374L38.8157 39.6848L36.7775 38.5523L34.8066 14.5782L37.6018 14.3484L39.3974 36.191C39.9728 35.8741 40.6538 35.4924 41.4007 35.0607C43.0297 34.1192 44.9533 32.9509 46.7734 31.7084C46.448 31.1045 46.149 30.5081 45.8857 29.9273C45.2909 28.6147 44.8384 27.2955 44.7206 26.1055C44.6031 24.9196 44.8019 23.5878 45.8656 22.6654C46.8789 21.7869 48.3235 21.6003 49.903 21.7675C51.8518 21.9737 53.393 22.393 54.4152 23.1481C54.9542 23.5463 55.3795 24.0612 55.6031 24.7008C55.8258 25.3378 55.8068 25.9793 55.6596 26.5638C55.3803 27.6721 54.6025 28.7284 53.7322 29.6554C52.8357 30.6105 51.697 31.577 50.4762 32.5028C50.4937 32.5312 50.5113 32.5596 50.529 32.5881C52.1858 35.2585 54.2059 37.9834 55.823 40.0525C56.2111 40.5491 56.5749 41.0065 56.9036 41.4147C57.1613 40.4503 57.4811 39.2545 57.8483 37.8844C58.8464 34.1602 60.1941 29.1481 61.5921 23.9972C64.3744 13.7461 67.3926 2.8078 68.2235 0.521118L70.8595 1.47893C70.0809 3.62169 67.1065 14.3868 64.2987 24.7318C62.9017 29.8789 61.5549 34.888 60.5573 38.6104C60.0585 40.4716 59.647 42.011 59.3603 43.0851C59.2169 43.6222 59.1047 44.0428 59.0284 44.3292C58.9902 44.4724 58.961 44.5821 58.9413 44.6559L58.9117 44.7672ZM49.0675 30.0491C50.1026 29.2488 51.0025 28.4656 51.6875 27.7359C52.4685 26.904 52.8396 26.277 52.94 25.8785C52.9826 25.7096 52.9611 25.6419 52.9557 25.6263C52.9511 25.6133 52.9226 25.5323 52.7487 25.4039C52.3451 25.1057 51.4242 24.7487 49.6078 24.5565C48.3084 24.4189 47.8375 24.6677 47.7029 24.7844C47.6188 24.8573 47.4373 25.0805 47.5115 25.8292C47.5852 26.5738 47.896 27.5687 48.4402 28.7696C48.6275 29.1829 48.8378 29.6106 49.0675 30.0491ZM57.5565 44.4069L56.4933 45.3212L58.9116 44.7676L57.5565 44.4069Z" fill="#49490E" style="fill:#49490E;fill:color(display-p3 0.2863 0.2863 0.0549);fill-opacity:1;"/>
</svg>
